<svg xmlns="http://www.w3.org/2000/svg" viewBox="0 0 128 128">
  <!-- Generated by scripts/generate-favicon.ts from CONTENT_POINTS — do not hand-edit. -->
  <g class="edges">
    <line x1="34.61" y1="23.55" x2="64" y2="14" />
    <line x1="34.61" y1="23.55" x2="16.45" y2="48.55" />
    <line x1="16.45" y1="48.55" x2="64" y2="14" />
    <line x1="16.45" y1="48.55" x2="93.39" y2="23.55" />
    <line x1="16.45" y1="48.55" x2="111.55" y2="79.45" />
    <line x1="16.45" y1="48.55" x2="16.45" y2="79.45" />
    <line x1="111.55" y1="79.45" x2="93.39" y2="104.45" />
    <line x1="111.55" y1="79.45" x2="64" y2="114" />
    <line x1="111.55" y1="79.45" x2="16.45" y2="79.45" />
    <line x1="111.55" y1="79.45" x2="93.39" y2="23.55" />
    <line x1="111.55" y1="79.45" x2="111.55" y2="48.55" />
    <line x1="34.61" y1="104.45" x2="16.45" y2="79.45" />
    <line x1="34.61" y1="104.45" x2="64" y2="114" />
    <line x1="34.61" y1="104.45" x2="93.39" y2="104.45" />
    <line x1="34.61" y1="104.45" x2="111.55" y2="48.55" />
    <line x1="93.39" y1="23.55" x2="111.55" y2="48.55" />
    <line x1="93.39" y1="23.55" x2="64" y2="14" />
    <line x1="64" y1="114" x2="93.39" y2="104.45" />
    <line x1="64" y1="114" x2="16.45" y2="79.45" />
    <line x1="111.55" y1="48.55" x2="93.39" y2="104.45" />
  </g>
  <g class="nodes">
    <circle class="seed" cx="34.61" cy="23.55" r="8" />
    <circle class="seed" cx="16.45" cy="48.55" r="8" />
    <circle class="seed" cx="111.55" cy="79.45" r="8" />
    <circle class="seed" cx="34.61" cy="104.45" r="8" />
    <circle class="node" cx="93.39" cy="23.55" r="6" />
    <circle class="node" cx="64" cy="114" r="6" />
    <circle class="node" cx="16.45" cy="79.45" r="6" />
    <circle class="node" cx="111.55" cy="48.55" r="6" />
    <circle class="node" cx="93.39" cy="104.45" r="6" />
    <circle class="node" cx="64" cy="14" r="6" />
  </g>
  <style>
    .edges line { stroke: #9a948a; stroke-width: 2.2; stroke-linecap: round; }
    .nodes .node { fill: #171c15; stroke: #ece7d9; stroke-width: 2.2; }
    .nodes .seed { fill: #96b481; stroke: #96b481; }
    @media (prefers-color-scheme: light) {
      .nodes .node { fill: #ece7d9; stroke: #171c15; }
    }
  </style>
</svg>
